<svg xmlns="http://www.w3.org/2000/svg" viewBox="0 0 900 1200" role="img" aria-labelledby="t d">
<title id="t">Matrix Siege Mini Ordu</title><desc id="d">Özgün neon bilimkurgu strateji oyunu kapak görseli</desc>
<defs><linearGradient id="bg" x1="0" y1="0" x2="1" y2="1"><stop stop-color="#02140d"/><stop offset=".52" stop-color="#083a27"/><stop offset="1" stop-color="#120522"/></linearGradient><radialGradient id="g1"><stop stop-color="#4cff9c" stop-opacity=".85"/><stop offset="1" stop-color="#4cff9c" stop-opacity="0"/></radialGradient><radialGradient id="g2"><stop stop-color="#ff4fa3" stop-opacity=".7"/><stop offset="1" stop-color="#ff4fa3" stop-opacity="0"/></radialGradient><filter id="glow"><feGaussianBlur stdDeviation="18" result="b"/><feMerge><feMergeNode in="b"/><feMergeNode in="SourceGraphic"/></feMerge></filter></defs>
<rect width="900" height="1200" fill="url(#bg)"/><circle cx="240" cy="360" r="260" fill="url(#g1)"/><circle cx="720" cy="720" r="330" fill="url(#g2)"/>
<g opacity=".18" stroke="#55ffad"><path d="M0 160H900M0 320H900M0 480H900M0 640H900M0 800H900M0 960H900"/><path d="M120 0V1200M300 0V1200M480 0V1200M660 0V1200M840 0V1200"/></g>
<g transform="translate(450 650)" filter="url(#glow)"><path d="M-350 210V-110l95-120 95 120v320z" fill="#081810" stroke="#41ff91" stroke-width="14"/><path d="M350 210V-110l-95-120-95 120v320z" fill="#140914" stroke="#ff4f9a" stroke-width="14"/><path d="M-255-145l95 105-95 105-95-105z" fill="#41ff91"/><path d="M255-145l95 105-95 105-95-105z" fill="#ff4f9a"/></g>
<g transform="translate(450 710)" stroke-linecap="round" stroke-width="28" filter="url(#glow)"><path d="M-245 0h150" stroke="#41ff91"/><path d="M245 0H95" stroke="#ff4f9a"/><circle cx="-75" cy="0" r="42" fill="#0c2a1c" stroke="#41ff91"/><circle cx="75" cy="0" r="42" fill="#2a0b20" stroke="#ff4f9a"/><path d="M-40 0H40" stroke="#51dfff"/></g>
<g fill="#fff" text-anchor="middle" font-family="Arial,Helvetica,sans-serif"><text x="450" y="170" font-size="58" font-weight="900" letter-spacing="8">PLAYMATRIX</text><text x="450" y="250" font-size="86" font-weight="900" fill="#48ff9a">MATRIX SIEGE</text><text x="450" y="315" font-size="40" font-weight="700" fill="#c8ffe0" letter-spacing="12">MİNİ ORDU</text></g>
<g transform="translate(450 1010)"><rect x="-270" y="-62" width="540" height="124" rx="62" fill="#04110c" stroke="#4cff9c" stroke-width="6"/><text x="0" y="18" text-anchor="middle" font-family="Arial" font-size="46" font-weight="900" fill="#fff">STRATEJİ • 20 BÖLÜM</text></g>
</svg>
